<svg xmlns="http://www.w3.org/2000/svg" viewBox="0 0 512 512">
  <rect width="512" height="512" rx="116" fill="#f5efe3"/>
  <circle cx="332" cy="178" r="104" fill="#cf3a2b"/>
  <path d="M36 430 C 150 416 196 268 250 192 C 254 186 262 186 266 192 C 320 268 366 416 480 430 C 492 432 492 446 478 446 H 38 C 24 446 24 432 36 430 Z" fill="#262d36"/>
  <path d="M222 232 C 234 214 244 200 252 190 C 256 185 260 185 264 190 C 272 200 282 214 294 232 L 280 246 L 266 234 L 258 248 L 246 234 L 234 246 Z" fill="#f8f3ea"/>
</svg>
